<svg xmlns="http://www.w3.org/2000/svg" width="184" height="216" viewBox="0 0 184 216" role="img">
  <title>TinyBasic for Arduino logo - monogram badge</title>
  <desc>A flat hexagonal chip badge with a bold TB monogram and a blinking cursor, evoking a BASIC command prompt on a microcontroller.</desc>
  <!-- hexagon chip badge -->
  <polygon points="184,164 92,216 0,164 0,52 92,0 184,52" fill="#3771c8" />
  <polygon points="166,154 92,196 18,154 18,62 92,20 166,62" fill="#162d50" />
  <!-- TB monogram -->
  <g aria-label="TB" fill="#ffffff" stroke="#3771c8" stroke-width="3" transform="translate(-28.672125,-11.615383)">
    <path d="m 88.249866,162.45177 0.247462,-72.833611 -18.687096,0.01459 0.05711,-15.645534 93.432048,0.205584 c 7.49225,0.0054 7.00387,15.844418 -0.0571,15.645534 l -58.39205,-0.205584 -0.24746,72.833601 z" />
    <path d="m 141.51216,171.82958 c -7.84682,-0.16424 -16.48601,0.18571 -22.60468,-0.0194 l 0.38798,-68.26263 c 7.75046,-0.0305 14.04603,-0.24492 21.88629,0.2513 5.84557,0.3872 9.03436,0.44678 13.38636,1.59878 4.352,1.152 7.776,3.104 10.272,5.856 2.496,2.688 3.744,6.4 3.744,11.136 0,2.624 -0.64,4.992 -1.92,7.104 -1.28,2.112 -3.2,3.936 -5.76,5.472 4.224,1.6 7.104,3.776 8.64,6.528 1.536,2.752 2.304,5.856 2.304,9.312 0,6.976 -2.56,12.224 -7.68,15.744 -5.056,3.52 -12.608,5.28 -22.656,5.28 z m 0.192,-12.288 c 3.008,0 5.632,-0.256 7.872,-0.768 2.24,-0.576 3.968,-1.504 5.184,-2.784 1.28,-1.344 1.92,-3.168 1.92,-5.472 0,-3.072 -1.152,-5.248 -3.456,-6.528 -2.304,-1.344 -5.6,-2.016 -9.888,-2.016 h -9.408 v 17.184 c 1.088,0.128 2.272,0.224 3.552,0.288 1.28,0.064 2.688,0.096 4.224,0.096 z m -7.776,-28.992 h 7.296 c 3.072,0 5.536,-0.256 7.392,-0.768 1.92,-0.512 3.296,-1.312 4.128,-2.4 0.896,-1.152 1.344,-2.592 1.344,-4.32 0,-2.688 -1.024,-4.576 -3.072,-5.664 -2.048,-1.088 -5.056,-1.632 -9.024,-1.632 -1.28,0 -2.656,0.032 -4.128,0.096 -1.472,0 -2.784,0.064 -3.936,0.192 z" />
  </g>
</svg>
